<mxfile host="app.diagrams.net" agent="Mozilla/5.0 (Macintosh; Intel Mac OS X 10_15_7) AppleWebKit/537.36 (KHTML, like Gecko) Chrome/127.0.0.0 Safari/537.36" version="24.7.8">
  <diagram name="Page-1" id="6kCsX8B1JV-kOTX8PU_A">
    <mxGraphModel dx="1194" dy="615" grid="1" gridSize="10" guides="1" tooltips="1" connect="1" arrows="1" fold="1" page="1" pageScale="1" pageWidth="850" pageHeight="1100" math="0" shadow="0">
      <root>
        <mxCell id="0" />
        <mxCell id="1" parent="0" />
        <mxCell id="0ZY29xKRSaj6pofyXfO4-1" value="Food&lt;div&gt;API&lt;/div&gt;" style="rounded=1;whiteSpace=wrap;html=1;" vertex="1" parent="1">
          <mxGeometry x="550" y="350" width="120" height="60" as="geometry" />
        </mxCell>
        <mxCell id="0ZY29xKRSaj6pofyXfO4-2" value="Actor" style="shape=umlActor;verticalLabelPosition=bottom;verticalAlign=top;html=1;outlineConnect=0;" vertex="1" parent="1">
          <mxGeometry x="80" y="140" width="30" height="60" as="geometry" />
        </mxCell>
        <mxCell id="0ZY29xKRSaj6pofyXfO4-5" value="Food&lt;div&gt;API&lt;/div&gt;" style="rounded=1;whiteSpace=wrap;html=1;" vertex="1" parent="1">
          <mxGeometry x="550" y="36" width="120" height="60" as="geometry" />
        </mxCell>
        <mxCell id="0ZY29xKRSaj6pofyXfO4-6" value="Food&lt;br&gt;&lt;div&gt;API&lt;/div&gt;" style="rounded=1;whiteSpace=wrap;html=1;" vertex="1" parent="1">
          <mxGeometry x="550" y="140" width="120" height="60" as="geometry" />
        </mxCell>
        <mxCell id="0ZY29xKRSaj6pofyXfO4-7" value="&lt;div&gt;Food&lt;/div&gt;&lt;div&gt;API&lt;/div&gt;" style="rounded=1;whiteSpace=wrap;html=1;" vertex="1" parent="1">
          <mxGeometry x="550" y="250" width="120" height="60" as="geometry" />
        </mxCell>
        <mxCell id="0ZY29xKRSaj6pofyXfO4-9" style="edgeStyle=orthogonalEdgeStyle;rounded=0;orthogonalLoop=1;jettySize=auto;html=1;" edge="1" parent="1" source="0ZY29xKRSaj6pofyXfO4-8" target="0ZY29xKRSaj6pofyXfO4-6">
          <mxGeometry relative="1" as="geometry" />
        </mxCell>
        <mxCell id="0ZY29xKRSaj6pofyXfO4-10" style="edgeStyle=orthogonalEdgeStyle;rounded=0;orthogonalLoop=1;jettySize=auto;html=1;entryX=0;entryY=0.25;entryDx=0;entryDy=0;" edge="1" parent="1" source="0ZY29xKRSaj6pofyXfO4-8" target="0ZY29xKRSaj6pofyXfO4-5">
          <mxGeometry relative="1" as="geometry" />
        </mxCell>
        <mxCell id="0ZY29xKRSaj6pofyXfO4-11" style="edgeStyle=orthogonalEdgeStyle;rounded=0;orthogonalLoop=1;jettySize=auto;html=1;exitX=1;exitY=1;exitDx=0;exitDy=0;" edge="1" parent="1" source="0ZY29xKRSaj6pofyXfO4-8" target="0ZY29xKRSaj6pofyXfO4-7">
          <mxGeometry relative="1" as="geometry" />
        </mxCell>
        <mxCell id="0ZY29xKRSaj6pofyXfO4-12" style="edgeStyle=orthogonalEdgeStyle;rounded=0;orthogonalLoop=1;jettySize=auto;html=1;entryX=0;entryY=0.75;entryDx=0;entryDy=0;" edge="1" parent="1" source="0ZY29xKRSaj6pofyXfO4-8" target="0ZY29xKRSaj6pofyXfO4-1">
          <mxGeometry relative="1" as="geometry" />
        </mxCell>
        <mxCell id="0ZY29xKRSaj6pofyXfO4-8" value="Load&lt;div&gt;Balancer&lt;/div&gt;" style="rounded=1;whiteSpace=wrap;html=1;" vertex="1" parent="1">
          <mxGeometry x="310" y="100" width="130" height="180" as="geometry" />
        </mxCell>
        <mxCell id="0ZY29xKRSaj6pofyXfO4-13" style="edgeStyle=orthogonalEdgeStyle;rounded=0;orthogonalLoop=1;jettySize=auto;html=1;entryX=0;entryY=0.411;entryDx=0;entryDy=0;entryPerimeter=0;" edge="1" parent="1" source="0ZY29xKRSaj6pofyXfO4-2" target="0ZY29xKRSaj6pofyXfO4-8">
          <mxGeometry relative="1" as="geometry" />
        </mxCell>
        <mxCell id="0ZY29xKRSaj6pofyXfO4-14" value="" style="rounded=1;whiteSpace=wrap;html=1;fillColor=none;" vertex="1" parent="1">
          <mxGeometry x="270" y="10" width="470" height="450" as="geometry" />
        </mxCell>
        <mxCell id="0ZY29xKRSaj6pofyXfO4-15" value="Cluster&lt;div&gt;&lt;br&gt;&lt;/div&gt;" style="text;html=1;align=center;verticalAlign=middle;resizable=0;points=[];autosize=1;strokeColor=none;fillColor=none;" vertex="1" parent="1">
          <mxGeometry x="460" y="470" width="60" height="40" as="geometry" />
        </mxCell>
        <mxCell id="0ZY29xKRSaj6pofyXfO4-16" value="4 Nodes" style="text;html=1;align=center;verticalAlign=middle;resizable=0;points=[];autosize=1;strokeColor=none;fillColor=none;" vertex="1" parent="1">
          <mxGeometry x="740" y="200" width="70" height="30" as="geometry" />
        </mxCell>
        <mxCell id="0ZY29xKRSaj6pofyXfO4-17" value="Kubernetes" style="text;html=1;align=center;verticalAlign=middle;whiteSpace=wrap;rounded=0;" vertex="1" parent="1">
          <mxGeometry x="170" y="500" width="120" height="30" as="geometry" />
        </mxCell>
      </root>
    </mxGraphModel>
  </diagram>
</mxfile>
